<svg id="visual" viewBox="0 0 900 600" width="900" height="600" xmlns="http://www.w3.org/2000/svg" xmlns:xlink="http://www.w3.org/1999/xlink" version="1.1"><g stroke-width="1" stroke-linejoin="bevel"><path d="M375 324L315 233L270 289Z" fill="#0c2435" stroke="#0c2435"></path><path d="M270 289L282 381L375 324Z" fill="#15384f" stroke="#15384f"></path><path d="M375 324L409 194L315 233Z" fill="#15384f" stroke="#15384f"></path><path d="M163 193L176 325L270 289Z" fill="#112e42" stroke="#112e42"></path><path d="M270 289L176 325L282 381Z" fill="#205a7a" stroke="#205a7a"></path><path d="M323 530L387 439L282 381Z" fill="#246688" stroke="#246688"></path><path d="M282 381L387 439L375 324Z" fill="#1d4e6b" stroke="#1d4e6b"></path><path d="M375 324L527 280L409 194Z" fill="#0c2435" stroke="#0c2435"></path><path d="M176 325L205 411L282 381Z" fill="#277297" stroke="#277297"></path><path d="M409 194L367 114L315 233Z" fill="#112e42" stroke="#112e42"></path><path d="M315 233L163 193L270 289Z" fill="#0c2435" stroke="#0c2435"></path><path d="M172 124L163 193L315 233Z" fill="#00101c" stroke="#00101c"></path><path d="M520 427L527 280L375 324Z" fill="#0c2435" stroke="#0c2435"></path><path d="M409 194L469 124L367 114Z" fill="#277297" stroke="#277297"></path><path d="M527 280L507 170L409 194Z" fill="#246688" stroke="#246688"></path><path d="M507 170L469 124L409 194Z" fill="#00101c" stroke="#00101c"></path><path d="M310 61L172 124L315 233Z" fill="#15384f" stroke="#15384f"></path><path d="M387 0L310 61L367 114Z" fill="#1d4e6b" stroke="#1d4e6b"></path><path d="M367 114L310 61L315 233Z" fill="#0c2435" stroke="#0c2435"></path><path d="M172 124L127 167L163 193Z" fill="#112e42" stroke="#112e42"></path><path d="M163 193L64 301L176 325Z" fill="#00101c" stroke="#00101c"></path><path d="M387 439L520 427L375 324Z" fill="#1d4e6b" stroke="#1d4e6b"></path><path d="M205 411L323 530L282 381Z" fill="#112e42" stroke="#112e42"></path><path d="M387 439L423 529L520 427Z" fill="#205a7a" stroke="#205a7a"></path><path d="M323 530L423 529L387 439Z" fill="#246688" stroke="#246688"></path><path d="M127 167L64 301L163 193Z" fill="#112e42" stroke="#112e42"></path><path d="M176 325L68 392L205 411Z" fill="#297ea6" stroke="#297ea6"></path><path d="M205 411L175 516L323 530Z" fill="#277297" stroke="#277297"></path><path d="M423 529L536 463L520 427Z" fill="#0c2435" stroke="#0c2435"></path><path d="M520 427L593 377L527 280Z" fill="#277297" stroke="#277297"></path><path d="M98 510L175 516L205 411Z" fill="#19435d" stroke="#19435d"></path><path d="M600 463L593 377L520 427Z" fill="#297ea6" stroke="#297ea6"></path><path d="M628 201L566 129L507 170Z" fill="#112e42" stroke="#112e42"></path><path d="M64 301L68 392L176 325Z" fill="#297ea6" stroke="#297ea6"></path><path d="M507 170L566 129L469 124Z" fill="#297ea6" stroke="#297ea6"></path><path d="M387 0L284 0L310 61Z" fill="#19435d" stroke="#19435d"></path><path d="M628 201L507 170L527 280Z" fill="#277297" stroke="#277297"></path><path d="M310 61L206 0L172 124Z" fill="#297ea6" stroke="#297ea6"></path><path d="M172 124L64 107L127 167Z" fill="#081a28" stroke="#081a28"></path><path d="M387 0L367 114L469 124Z" fill="#112e42" stroke="#112e42"></path><path d="M462 0L387 0L469 124Z" fill="#081a28" stroke="#081a28"></path><path d="M676 324L634 322L593 377Z" fill="#1d4e6b" stroke="#1d4e6b"></path><path d="M593 377L634 322L527 280Z" fill="#277297" stroke="#277297"></path><path d="M323 530L365 600L423 529Z" fill="#0c2435" stroke="#0c2435"></path><path d="M593 600L600 463L536 463Z" fill="#19435d" stroke="#19435d"></path><path d="M193 600L318 600L323 530Z" fill="#19435d" stroke="#19435d"></path><path d="M318 600L365 600L323 530Z" fill="#1d4e6b" stroke="#1d4e6b"></path><path d="M634 322L628 201L527 280Z" fill="#15384f" stroke="#15384f"></path><path d="M284 0L206 0L310 61Z" fill="#1d4e6b" stroke="#1d4e6b"></path><path d="M68 392L98 510L205 411Z" fill="#0c2435" stroke="#0c2435"></path><path d="M175 516L193 600L323 530Z" fill="#205a7a" stroke="#205a7a"></path><path d="M566 129L462 0L469 124Z" fill="#1d4e6b" stroke="#1d4e6b"></path><path d="M597 0L462 0L566 129Z" fill="#1d4e6b" stroke="#1d4e6b"></path><path d="M99 0L64 107L172 124Z" fill="#081a28" stroke="#081a28"></path><path d="M0 171L0 301L64 301Z" fill="#205a7a" stroke="#205a7a"></path><path d="M513 600L536 463L423 529Z" fill="#00101c" stroke="#00101c"></path><path d="M536 463L600 463L520 427Z" fill="#19435d" stroke="#19435d"></path><path d="M64 301L0 367L68 392Z" fill="#277297" stroke="#277297"></path><path d="M68 392L0 491L98 510Z" fill="#19435d" stroke="#19435d"></path><path d="M0 171L64 301L127 167Z" fill="#0c2435" stroke="#0c2435"></path><path d="M0 301L0 367L64 301Z" fill="#297ea6" stroke="#297ea6"></path><path d="M121 600L193 600L175 516Z" fill="#297ea6" stroke="#297ea6"></path><path d="M64 107L0 171L127 167Z" fill="#00101c" stroke="#00101c"></path><path d="M720 397L676 324L593 377Z" fill="#19435d" stroke="#19435d"></path><path d="M634 322L676 324L628 201Z" fill="#112e42" stroke="#112e42"></path><path d="M365 600L513 600L423 529Z" fill="#297ea6" stroke="#297ea6"></path><path d="M676 324L679 188L628 201Z" fill="#246688" stroke="#246688"></path><path d="M628 201L696 98L566 129Z" fill="#205a7a" stroke="#205a7a"></path><path d="M206 0L99 0L172 124Z" fill="#19435d" stroke="#19435d"></path><path d="M64 107L0 101L0 171Z" fill="#297ea6" stroke="#297ea6"></path><path d="M0 600L121 600L98 510Z" fill="#246688" stroke="#246688"></path><path d="M98 510L121 600L175 516Z" fill="#205a7a" stroke="#205a7a"></path><path d="M0 0L0 101L64 107Z" fill="#15384f" stroke="#15384f"></path><path d="M0 367L0 491L68 392Z" fill="#277297" stroke="#277297"></path><path d="M593 600L663 490L600 463Z" fill="#00101c" stroke="#00101c"></path><path d="M600 463L720 397L593 377Z" fill="#0c2435" stroke="#0c2435"></path><path d="M696 98L597 0L566 129Z" fill="#19435d" stroke="#19435d"></path><path d="M663 490L720 397L600 463Z" fill="#15384f" stroke="#15384f"></path><path d="M676 324L766 198L679 188Z" fill="#1d4e6b" stroke="#1d4e6b"></path><path d="M513 600L593 600L536 463Z" fill="#0c2435" stroke="#0c2435"></path><path d="M766 198L696 98L679 188Z" fill="#00101c" stroke="#00101c"></path><path d="M679 188L696 98L628 201Z" fill="#205a7a" stroke="#205a7a"></path><path d="M99 0L0 0L64 107Z" fill="#277297" stroke="#277297"></path><path d="M812 426L772 316L720 397Z" fill="#00101c" stroke="#00101c"></path><path d="M720 397L772 316L676 324Z" fill="#19435d" stroke="#19435d"></path><path d="M772 316L766 198L676 324Z" fill="#1d4e6b" stroke="#1d4e6b"></path><path d="M0 491L0 600L98 510Z" fill="#15384f" stroke="#15384f"></path><path d="M718 600L762 464L663 490Z" fill="#1d4e6b" stroke="#1d4e6b"></path><path d="M663 490L762 464L720 397Z" fill="#112e42" stroke="#112e42"></path><path d="M762 71L708 0L696 98Z" fill="#19435d" stroke="#19435d"></path><path d="M696 98L708 0L597 0Z" fill="#19435d" stroke="#19435d"></path><path d="M766 198L762 71L696 98Z" fill="#297ea6" stroke="#297ea6"></path><path d="M778 0L762 71L900 97Z" fill="#205a7a" stroke="#205a7a"></path><path d="M593 600L718 600L663 490Z" fill="#0c2435" stroke="#0c2435"></path><path d="M762 464L812 426L720 397Z" fill="#0c2435" stroke="#0c2435"></path><path d="M772 316L900 267L766 198Z" fill="#19435d" stroke="#19435d"></path><path d="M900 461L812 426L762 464Z" fill="#00101c" stroke="#00101c"></path><path d="M900 97L762 71L766 198Z" fill="#0c2435" stroke="#0c2435"></path><path d="M762 71L778 0L708 0Z" fill="#081a28" stroke="#081a28"></path><path d="M900 365L772 316L812 426Z" fill="#246688" stroke="#246688"></path><path d="M900 365L900 267L772 316Z" fill="#19435d" stroke="#19435d"></path><path d="M900 461L900 365L812 426Z" fill="#205a7a" stroke="#205a7a"></path><path d="M900 267L900 213L766 198Z" fill="#297ea6" stroke="#297ea6"></path><path d="M718 600L830 600L762 464Z" fill="#0c2435" stroke="#0c2435"></path><path d="M830 600L900 461L762 464Z" fill="#1d4e6b" stroke="#1d4e6b"></path><path d="M900 213L900 97L766 198Z" fill="#19435d" stroke="#19435d"></path><path d="M900 97L900 0L778 0Z" fill="#277297" stroke="#277297"></path><path d="M830 600L900 600L900 461Z" fill="#081a28" stroke="#081a28"></path></g></svg>